<?xml version="1.0" encoding="utf-8"?>
<!-- Svg Vector Icons : http://www.onlinewebfonts.com/icon -->
<!DOCTYPE svg PUBLIC "-//W3C//DTD SVG 1.1//EN" "http://www.w3.org/Graphics/SVG/1.1/DTD/svg11.dtd">
<svg version="1.1" xmlns="http://www.w3.org/2000/svg" xmlns:xlink="http://www.w3.org/1999/xlink" x="0px" y="0px" viewBox="0 0 1000 1000" enable-background="new 0 0 1000 1000" xml:space="preserve">
<metadata> Svg Vector Icons : http://www.onlinewebfonts.com/icon </metadata>
<g><g transform="translate(0.000000,511.000000) scale(0.100000,-0.100000)"><path d="M765.5,5001.9c-173.5-18.3-180.4-38.8-164.4-454.3c61.6-1755.6,908.7-3184.8,2004.5-3385.7l157.5-27.4l98.2-230.6C3197,113.9,3642.2-463.7,4137.6-753.6l107.3-63.9V-1160v-342.5h-296.8h-296.8v-296.8V-2096h-137c-82.2,0-137-9.1-137-25.1c0-11.4-70.8-598.1-159.8-1299c-86.8-700.9-159.8-1296.8-159.8-1321.9v-47.9h1940.6h1940.6v47.9c0,25.1-70.8,621-159.8,1321.9c-86.7,700.9-159.8,1287.6-159.8,1299c0,16-54.8,25.1-137,25.1h-137v296.8v296.8h-296.8h-296.8v342.5v342.5l107.3,63.9c495.4,289.9,940.6,867.5,1276.2,1657.5l98.2,230.6l152.9,27.4c746.6,137,1401.8,851.6,1753.4,1910.9c155.2,470.3,264.8,1132.4,264.8,1605c0,267.1-29.7,326.5-164.4,326.5C8616.9,5013.3,845.5,5011,765.5,5001.9z M2016.6,4565.8c6.9-54.8,29.7-242,50.2-417.8c47.9-429.2,171.2-1155.2,269.4-1582.1c68.5-301.4,232.9-897.2,276.3-1013.7c13.7-34.2,4.6-36.5-73.1-13.7c-397.2,107.3-844.7,547.9-1123.2,1105c-255.7,509.1-413.2,1127.8-470.3,1831l-13.7,187.2h536.5h536.5L2016.6,4565.8z M9050.7,4485.9c-57.1-726-216.9-1340.1-484-1862.9c-285.4-557.1-691.8-958.9-1093.6-1079.9c-98.2-29.7-105-27.4-89,9.1c6.8,20.6,59.3,198.6,116.4,392.7c175.8,614.1,331,1397.2,417.8,2123.2c27.4,219.2,54.8,442.9,61.6,497.7l11.4,95.9h536.5h536.5L9050.7,4485.9z M7053,3999.7c59.3-59.4,59.3-111.9-22.8-600.4c-230.6-1369.8-532-2271.6-954.3-2869.8C5888.7,264.6,5804.2,187,5706,187c-171.2,0-221.5,164.4-95.9,315c518.3,611.9,863,1586.7,1100.4,3120.9c38.8,244.3,61.6,331,98.2,372.1C6868.1,4059,6989.1,4063.6,7053,3999.7z M5274.5-2929.3c337.9-171.2,406.4-648.4,132.4-922.3c-111.9-114.2-235.1-162.1-408.7-162.1c-691.8,0-796.8,968-125.6,1143.8C4977.7-2842.6,5153.5-2867.7,5274.5-2929.3z"/></g></g>
</svg>