<?xml version="1.0" standalone="no"?>
<!DOCTYPE svg PUBLIC "-//W3C//DTD SVG 20010904//EN"
 "http://www.w3.org/TR/2001/REC-SVG-20010904/DTD/svg10.dtd">
<svg version="1.0" xmlns="http://www.w3.org/2000/svg"
 width="3049.000000pt" height="3049.000000pt" viewBox="0 0 3049.000000 3049.000000"
 preserveAspectRatio="xMidYMid meet">
<metadata>
Created by potrace 1.14, written by Peter Selinger 2001-2017
</metadata>
<g transform="translate(0.000000,3049.000000) scale(0.100000,-0.100000)"
fill="#000000" stroke="none">
<path d="M8696 30339 c-463 -60 -950 -298 -1386 -678 -1343 -1171 -2468 -3727
-3144 -7146 -321 -1625 -529 -3381 -621 -5240 -35 -723 -40 -963 -40 -2005 0
-1161 13 -1616 70 -2550 320 -5159 1581 -9488 3335 -11444 349 -389 700 -668
1075 -852 248 -122 478 -193 725 -224 109 -13 351 -13 460 0 474 59 958 294
1400 679 1049 914 1978 2694 2651 5078 56 198 78 263 91 266 9 3 19 0 21 -6 4
-12 230 -148 432 -258 178 -97 322 -183 425 -254 94 -65 293 -185 307 -185 6
0 16 -7 23 -15 7 -9 15 -14 17 -11 3 2 30 -7 61 -21 131 -57 277 -113 296
-113 9 0 16 -5 16 -12 0 -6 3 -9 6 -5 3 3 27 -1 52 -8 26 -7 65 -16 87 -21
105 -19 159 -28 169 -25 4 1 15 -4 24 -11 13 -11 15 -11 7 2 -6 12 -5 12 5 3
7 -6 19 -9 26 -6 8 3 49 -3 91 -13 43 -9 89 -18 103 -19 14 -1 34 -6 45 -12
17 -9 51 -20 90 -28 6 -2 62 -20 125 -41 63 -21 118 -37 123 -36 4 1 7 -3 7
-8 0 -5 3 -9 8 -8 4 1 25 -4 46 -10 22 -6 43 -9 48 -6 4 3 8 1 8 -3 0 -14 103
-9 108 5 2 7 13 12 24 12 12 0 18 3 15 6 -3 4 -2 15 3 25 6 10 6 20 1 23 -15
9 0 46 18 46 14 0 14 -2 1 -10 -8 -5 -11 -12 -7 -17 22 -22 36 93 17 142 -20
53 -94 126 -163 161 -75 38 -86 53 -66 91 12 21 11 26 -3 34 -9 5 -32 31 -51
58 -33 45 -41 50 -94 61 -91 19 -113 32 -220 127 -56 49 -126 102 -157 117
-31 16 -54 31 -52 34 9 8 -97 60 -111 55 -8 -3 -13 2 -13 13 0 9 -3 15 -6 11
-4 -3 -12 0 -20 7 -7 7 -31 16 -53 20 -24 4 -46 14 -55 27 -8 12 -19 18 -24
15 -14 -8 -62 11 -62 24 0 6 4 9 9 5 5 -3 12 -1 16 5 3 5 1 10 -6 10 -9 0 -9
3 0 14 15 18 -11 30 -28 13 -6 -6 -11 -7 -11 -1 0 5 5 15 10 20 12 12 3 44
-11 44 -6 0 -42 31 -82 69 -40 38 -92 84 -117 102 -53 38 -69 59 -91 115 -9
22 -29 55 -46 72 -48 51 -80 128 -87 213 -4 49 -3 86 5 105 6 16 13 49 15 73
2 24 8 59 14 77 7 19 8 43 5 55 -4 12 -2 24 4 28 8 6 9 27 2 77 -13 86 -27
123 -68 167 -17 19 -29 38 -26 41 4 3 2 6 -4 6 -6 0 -37 43 -68 97 -78 134
-167 217 -301 284 -88 44 -108 51 -147 47 -25 -3 -53 0 -62 5 -10 5 -15 6 -12
0 11 -18 -9 -32 -58 -40 -34 -6 -50 -13 -50 -23 0 -11 -10 -15 -35 -14 -23 0
-40 -6 -50 -18 -10 -12 -21 -17 -33 -13 -21 9 -21 15 -2 104 8 39 17 85 20
103 3 18 21 114 40 213 75 391 182 1035 241 1450 15 105 32 193 38 196 23 14
120 86 184 137 107 85 248 229 335 340 44 57 91 108 106 114 26 10 48 13 296
43 129 15 236 20 265 12 8 -2 29 -8 46 -12 18 -4 37 -17 45 -31 7 -13 16 -24
21 -24 4 0 8 -7 8 -15 0 -8 6 -15 14 -15 7 0 19 -7 26 -15 7 -8 17 -12 22 -9
5 3 15 -1 21 -9 7 -8 83 -63 169 -121 110 -75 179 -114 228 -131 39 -13 97
-40 128 -59 142 -86 297 -142 576 -211 126 -30 236 -60 246 -65 9 -5 93 -32
186 -59 363 -107 495 -161 592 -243 18 -15 41 -28 51 -28 10 0 56 -23 102 -51
103 -63 280 -144 374 -171 39 -11 125 -44 192 -74 76 -33 129 -51 143 -47 14
4 20 1 18 -7 -3 -14 14 -21 152 -65 47 -15 110 -39 140 -53 30 -14 56 -25 58
-23 1 1 14 -7 29 -18 24 -20 50 -20 38 0 -11 17 4 9 31 -16 15 -14 33 -25 39
-25 39 0 200 -57 264 -93 40 -23 76 -42 80 -43 3 0 28 -11 55 -23 27 -12 134
-44 239 -72 165 -44 197 -50 255 -45 37 2 181 10 319 17 292 14 334 9 406 -47
35 -28 55 -35 89 -36 23 0 46 -5 50 -12 5 -7 8 -6 8 4 0 10 3 11 8 4 9 -13
176 -44 214 -39 16 2 30 -1 33 -5 3 -5 24 -6 48 -3 47 6 42 6 192 -6 61 -5
120 -12 133 -16 13 -5 28 -2 37 5 9 7 18 10 22 7 3 -4 14 -2 24 4 14 7 19 6
19 -2 0 -7 2 -10 5 -7 13 12 145 -22 215 -56 41 -20 82 -36 90 -36 9 0 20 -4
26 -8 5 -5 56 -29 114 -52 98 -41 217 -112 267 -159 12 -12 25 -21 29 -21 4 0
15 -6 23 -13 9 -8 46 -23 83 -35 37 -12 103 -42 147 -66 45 -25 81 -42 81 -40
0 3 7 -2 16 -10 8 -9 24 -17 35 -17 21 -2 27 -3 49 -11 8 -4 29 -11 47 -16 17
-6 72 -33 122 -60 93 -52 149 -73 238 -91 29 -6 97 -33 151 -60 54 -27 154
-70 221 -96 68 -26 137 -55 155 -66 17 -10 49 -25 71 -32 58 -21 247 -113 336
-164 45 -26 109 -52 155 -64 44 -11 130 -45 194 -78 63 -32 139 -66 167 -75
37 -12 67 -32 102 -68 39 -40 53 -49 71 -43 18 6 21 3 18 -14 -2 -13 14 -38
47 -73 27 -29 49 -56 48 -59 -1 -4 7 -4 19 -1 18 4 20 2 16 -21 -5 -27 -8 -25
161 -159 104 -83 184 -138 203 -138 11 0 17 -4 14 -9 -3 -5 17 -29 46 -53 29
-23 49 -37 44 -30 -4 6 -2 12 3 12 6 0 11 -6 11 -14 0 -8 22 -36 50 -62 27
-25 59 -61 72 -80 20 -28 98 -85 98 -70 0 3 13 0 30 -5 16 -6 27 -15 24 -20
-3 -5 0 -9 7 -9 7 0 9 -10 6 -26 -3 -20 0 -28 14 -31 11 -3 19 -14 19 -27 0
-17 2 -18 10 -6 8 13 10 13 10 -2 0 -9 11 -25 24 -36 17 -13 22 -22 15 -29 -8
-8 -7 -13 2 -18 8 -5 10 -4 5 3 -5 8 0 12 13 12 12 0 21 -7 21 -16 0 -15 59
-98 72 -102 27 -8 37 -15 32 -23 -3 -5 1 -9 9 -9 8 0 17 -6 20 -14 3 -8 23
-17 45 -21 54 -9 145 -53 234 -113 40 -27 87 -56 103 -65 17 -8 51 -35 78 -60
26 -25 69 -58 95 -73 48 -28 138 -106 289 -252 48 -46 117 -102 155 -124 38
-22 77 -51 86 -63 22 -28 149 -125 163 -125 6 0 49 -25 96 -56 47 -31 108 -65
135 -76 59 -22 75 -32 202 -127 163 -122 271 -187 349 -211 111 -34 125 -40
173 -79 24 -20 61 -43 81 -50 21 -7 74 -29 118 -48 44 -20 125 -53 180 -73 55
-21 128 -50 163 -64 73 -32 135 -36 158 -13 11 11 26 8 19 -3 -3 -6 -2 -10 4
-10 5 0 13 5 16 10 3 6 1 10 -4 10 -17 0 -13 27 5 34 22 8 26 8 19 -3 -3 -5 0
-13 6 -17 9 -5 10 -1 7 14 -6 20 6 41 48 84 10 10 18 34 18 53 1 20 5 33 11
31 7 -2 9 15 5 50 -4 39 -2 58 7 66 7 5 10 14 7 19 -3 5 1 11 8 14 8 3 15 20
16 37 2 17 7 37 13 44 7 8 6 14 -2 19 -8 6 -8 9 1 15 10 6 10 18 1 53 -6 25
-11 74 -11 109 0 36 -6 75 -15 92 -18 34 -19 57 -3 91 12 26 -2 104 -35 203
-11 33 -27 43 -27 18 0 -17 -27 -29 -35 -16 -4 6 1 10 9 10 9 0 16 7 16 16 0
8 -4 12 -10 9 -5 -3 -10 -1 -10 5 0 6 -5 8 -10 5 -5 -3 -10 -2 -10 4 0 5 7 11
16 13 16 3 -136 171 -356 394 -38 40 -70 77 -70 83 0 16 -118 101 -140 101
-10 0 -31 11 -47 23 -28 24 -77 42 -100 38 -7 -1 -13 3 -13 9 0 5 -9 10 -20
10 -10 0 -23 6 -27 14 -4 8 -30 26 -58 41 -27 16 -66 40 -85 54 -19 15 -62 45
-95 66 -82 54 -135 96 -235 186 -47 42 -103 86 -126 97 -22 11 -46 28 -53 36
-7 9 -17 14 -21 11 -4 -3 -10 8 -13 23 -3 15 -29 54 -56 87 -39 46 -56 79 -76
140 -26 86 -89 187 -150 244 -22 20 -35 42 -34 55 2 37 -1 46 -16 46 -8 0 -15
5 -15 10 0 7 -6 7 -20 0 -11 -6 -20 -7 -20 -2 0 11 -76 37 -103 34 -12 0 -24
3 -27 8 -3 5 -42 12 -85 15 -44 3 -81 10 -83 15 -2 5 -57 6 -125 3 -145 -6
-323 16 -401 51 -28 13 -78 44 -111 71 -80 63 -195 177 -195 191 0 6 -7 17
-15 24 -8 7 -12 17 -8 23 3 6 1 7 -5 3 -12 -7 -35 27 -25 38 3 3 1 6 -5 6 -6
0 -34 22 -64 49 -29 27 -62 50 -73 52 -12 3 -21 14 -23 28 -2 13 -12 26 -24
29 -15 3 -16 7 -7 13 10 6 9 10 -6 15 -33 13 -208 197 -247 260 -20 32 -51 89
-69 127 -18 37 -39 67 -45 67 -7 0 -16 10 -19 21 -6 17 -9 19 -16 8 -5 -8 -9
-12 -10 -9 -8 45 -12 57 -26 72 -8 10 -20 15 -24 12 -5 -3 -12 2 -15 11 -4 9
-13 14 -20 11 -12 -5 -19 12 -15 37 0 4 -6 7 -14 7 -8 0 -27 13 -41 29 -15 17
-32 27 -40 24 -10 -4 -12 0 -8 12 4 9 1 20 -5 25 -7 4 -14 16 -15 26 -2 14
-10 18 -32 17 -27 -3 -27 -2 -6 7 32 14 26 49 -10 56 -21 4 -21 6 -3 14 17 7
14 9 -14 9 -29 1 -32 3 -21 16 10 12 10 15 -4 15 -9 0 -16 5 -16 11 0 5 -4 7
-10 4 -12 -7 -52 13 -63 31 -4 8 -15 14 -22 14 -8 0 -15 5 -15 11 0 5 -4 7
-10 4 -5 -3 -10 -2 -10 3 0 6 -8 9 -17 8 -10 0 -19 7 -21 18 -3 13 0 16 10 11
7 -5 10 -5 6 -1 -3 4 -21 16 -40 25 -18 10 -33 22 -32 27 1 12 -29 33 -38 28
-5 -3 -8 0 -8 5 0 6 5 11 10 11 6 0 10 5 10 10 0 6 -3 9 -7 9 -5 -1 -10 0 -13
1 -3 1 -12 3 -20 5 -8 2 -28 10 -45 19 l-30 16 35 1 c31 1 30 2 -13 9 -54 9
-58 11 -61 33 -3 21 -26 47 -42 47 -7 0 -16 5 -20 12 -5 8 -2 9 11 4 15 -5 16
-4 5 9 -7 9 -15 13 -18 11 -2 -3 -11 2 -19 10 -8 8 -19 12 -24 9 -5 -4 -9 -1
-9 5 0 6 -5 8 -10 5 -15 -9 -57 20 -65 45 -3 11 -10 19 -14 17 -4 -1 -22 13
-38 31 -17 17 -34 32 -37 32 -10 0 -46 39 -46 50 0 6 -4 10 -10 10 -5 0 -10 8
-10 19 0 10 -10 30 -21 45 -18 22 -28 26 -58 23 -54 -6 -144 45 -127 72 4 5 1
13 -6 18 -21 13 -112 42 -132 43 -12 0 -16 5 -12 16 3 8 2 13 -2 10 -12 -7
-36 17 -48 49 -6 17 -16 29 -22 28 -7 -2 -12 6 -12 17 0 11 -4 20 -10 20 -5 0
-10 5 -10 10 0 6 7 10 16 10 10 0 5 9 -15 26 -17 14 -31 33 -31 42 0 13 -3 12
-15 -4 -14 -19 -14 -19 -15 1 0 18 -1 18 -16 -3 -8 -12 -12 -27 -9 -32 3 -6
-1 -10 -10 -10 -9 0 -13 5 -10 10 3 6 -1 10 -9 10 -26 0 -86 33 -86 47 0 7 -5
13 -11 13 -5 0 -7 -4 -4 -10 9 -15 -4 -12 -20 4 -8 7 -11 16 -8 20 6 6 -12 10
-30 7 -4 -1 -18 4 -30 11 -12 7 -26 11 -30 10 -4 -1 -10 5 -13 13 -4 8 -14 15
-23 15 -10 0 -21 3 -25 7 -3 4 -14 8 -22 9 -9 1 -23 6 -32 10 -20 9 -43 15
-59 16 -7 1 -14 7 -17 14 -4 10 -21 12 -66 7 -58 -5 -62 -4 -67 17 -6 22 -7
22 -19 5 -13 -18 -14 -18 -34 0 -11 10 -20 14 -20 10 0 -4 -9 2 -20 15 -16 19
-22 21 -35 10 -13 -11 -23 -11 -58 0 -23 7 -52 14 -64 15 -11 2 -30 6 -42 10
-17 5 -18 9 -8 20 8 9 14 10 19 2 4 -6 10 -8 15 -4 10 10 -18 28 -34 22 -18
-6 -74 15 -67 26 3 5 0 9 -5 9 -6 0 -11 -5 -11 -10 0 -6 -10 -8 -22 -5 -13 3
-34 6 -48 7 -60 1 -140 22 -156 39 -9 11 -29 19 -44 19 -16 0 -30 7 -34 16 -4
10 -13 13 -26 9 -13 -4 -20 -2 -20 7 0 10 -3 9 -10 -2 -8 -12 -12 -13 -19 -2
-4 8 -11 13 -15 13 -20 -3 -26 0 -20 10 5 8 -1 10 -19 7 -15 -3 -28 -1 -29 4
-4 12 -48 19 -48 7 0 -13 -28 -11 -32 3 -2 6 -27 12 -57 13 -28 1 -57 7 -64
14 -6 6 -22 11 -35 11 -13 0 -21 4 -18 9 7 11 -14 28 -34 26 -23 -2 -91 35
-85 45 4 6 -5 6 -21 0 -20 -8 -29 -8 -35 2 -4 6 -6 15 -4 19 3 3 -6 4 -19 2
-22 -4 -24 -2 -22 26 1 17 -1 31 -6 31 -4 0 -8 -10 -8 -22 0 -17 -3 -19 -9 -9
-6 9 -30 14 -70 15 -33 0 -61 4 -61 7 0 4 -11 10 -25 13 -14 4 -25 12 -24 19
3 26 -2 34 -23 33 -16 -1 -22 4 -20 14 2 8 0 12 -3 8 -11 -10 -45 10 -45 27 0
18 -17 28 -31 19 -8 -4 -7 -9 2 -15 10 -6 4 -9 -18 -9 -29 0 -33 3 -33 25 0
14 -4 25 -10 25 -5 0 -10 -3 -10 -8 0 -4 -21 -6 -47 -6 -27 1 -48 3 -48 4 0 3
-27 9 -90 22 -33 6 -62 15 -65 19 -3 4 -16 9 -30 11 -14 2 -24 8 -23 14 1 6
-14 11 -35 12 -21 1 -40 8 -44 17 -5 8 -16 15 -23 15 -8 0 -15 5 -15 10 0 14
-37 12 -43 -2 -4 -10 -6 -10 -6 0 -1 6 -8 12 -16 12 -8 0 -15 5 -15 10 0 6 -7
10 -16 10 -8 0 -12 -4 -9 -10 3 -6 2 -10 -4 -10 -5 0 -13 9 -16 20 -3 11 -11
20 -16 20 -6 0 -7 5 -4 10 10 16 -5 12 -23 -6 -15 -15 -18 -14 -37 10 -13 16
-31 26 -48 26 -19 0 -27 5 -27 17 0 9 -3 14 -6 10 -3 -3 -16 3 -28 14 -11 11
-29 18 -39 15 -13 -3 -17 0 -13 9 3 9 0 12 -8 9 -8 -3 -21 4 -29 16 -8 12 -21
20 -28 19 -19 -3 -79 21 -79 32 0 4 -7 6 -15 3 -9 -4 -15 0 -15 8 0 8 -9 23
-20 33 -11 10 -17 21 -15 25 2 4 -13 5 -35 3 -30 -4 -41 -1 -46 11 -3 9 -11
16 -16 16 -6 0 -27 14 -48 30 -21 17 -43 30 -49 30 -7 0 -15 8 -18 18 -11 29
-31 44 -39 30 -5 -8 -10 -4 -15 10 -5 12 -17 22 -27 22 -10 0 -47 22 -83 50
-35 27 -72 50 -82 50 -14 0 -16 4 -8 19 13 24 -9 47 -27 29 -7 -7 -12 -8 -12
-2 0 5 5 15 12 22 7 7 9 12 4 12 -4 0 -15 -7 -24 -16 -14 -15 -17 -15 -27 0
-7 9 -17 16 -22 16 -6 0 -29 18 -51 39 -22 22 -52 47 -66 56 -14 10 -23 22
-19 28 3 5 1 7 -5 4 -5 -4 -22 6 -35 23 -14 16 -33 30 -41 30 -9 0 -33 16 -53
35 -20 19 -33 35 -28 35 4 0 -13 16 -38 36 -26 20 -45 40 -42 44 3 4 -9 7 -26
6 -33 -2 -69 18 -69 39 0 7 -13 16 -30 20 -16 4 -30 12 -30 19 0 8 -21 21 -47
31 -27 10 -65 32 -85 48 -20 16 -43 27 -51 24 -9 -3 -20 4 -27 19 -8 15 -22
24 -37 24 -14 0 -23 6 -23 15 0 9 -9 15 -25 15 -14 0 -28 6 -31 14 -6 15 -40
29 -63 26 -7 -1 -10 4 -6 10 4 6 -6 15 -24 21 -17 6 -31 15 -31 20 0 5 -7 9
-15 9 -8 0 -15 5 -15 10 0 6 -9 10 -19 10 -11 0 -26 8 -33 18 -7 10 -28 25
-45 33 -18 7 -33 17 -33 21 0 5 -7 8 -15 8 -8 0 -23 10 -33 21 -9 12 -35 30
-57 40 -35 16 -37 19 -15 19 l25 1 -25 13 c-14 8 -28 12 -32 10 -5 -3 -8 0 -8
5 0 6 -6 11 -13 11 -8 0 -22 9 -32 20 -10 11 -28 20 -39 20 -15 0 -17 3 -8 9
10 6 7 10 -12 15 -15 4 -26 13 -26 23 0 9 -3 13 -6 10 -11 -11 -64 33 -64 54
0 11 -8 22 -17 26 -22 8 -53 39 -53 52 0 6 -6 8 -13 5 -26 -10 -40 23 -29 66
11 44 -3 77 -29 67 -10 -4 -9 -6 4 -6 23 -1 25 -71 2 -71 -9 0 -18 7 -21 15
-4 8 -13 15 -21 15 -8 0 -30 17 -50 38 -19 20 -42 37 -52 37 -26 0 -42 15 -37
33 6 18 -6 44 -19 44 -4 0 -12 -6 -16 -14 -6 -9 -9 -5 -9 13 0 29 -64 104 -80
94 -14 -9 -13 8 2 23 9 9 7 12 -13 13 -16 1 -19 3 -6 6 24 6 21 23 -4 23 -16
0 -20 5 -16 20 3 10 -1 24 -9 31 -8 6 -12 15 -9 19 3 5 -3 16 -12 26 -10 10
-17 20 -16 23 6 13 -9 41 -18 35 -6 -3 -9 0 -8 7 1 8 -4 34 -11 59 -7 25 -13
49 -12 53 1 4 -5 10 -13 13 -8 4 -15 17 -15 30 0 13 -9 29 -20 36 -11 7 -20
20 -20 29 0 9 -7 22 -15 29 -13 10 -15 9 -15 -11 0 -18 -3 -20 -9 -10 -5 8 -7
20 -4 28 3 7 0 13 -5 13 -6 0 -12 12 -14 28 -2 19 -8 26 -20 24 -26 -4 -22 13
8 33 14 9 23 19 19 23 -3 4 -10 0 -14 -7 -11 -17 -51 -5 -51 15 0 8 -5 14 -11
14 -7 0 -9 9 -6 21 3 13 0 22 -10 26 -8 3 -19 17 -24 30 -5 13 -13 21 -19 18
-5 -3 -10 2 -10 12 0 20 -34 55 -44 46 -3 -4 -6 0 -6 8 0 8 5 20 11 26 20 20
-1 36 -22 17 -16 -15 -19 -15 -19 -2 0 9 -7 21 -15 28 -8 7 -15 21 -15 31 0
11 -11 24 -25 31 -14 6 -25 18 -25 25 0 8 -4 11 -10 8 -5 -3 -10 1 -10 9 0 8
-8 21 -17 28 -10 7 -26 30 -35 51 -10 20 -24 37 -33 37 -8 0 -15 6 -15 13 0
15 -70 77 -87 77 -7 0 -13 9 -13 20 0 11 -7 20 -15 20 -8 0 -15 5 -15 10 0 6
-7 10 -15 10 -8 0 -15 5 -15 10 0 6 -9 10 -19 10 -11 0 -23 9 -26 20 -3 11
-12 20 -19 20 -8 0 -19 7 -26 15 -7 8 -16 12 -21 9 -5 -3 -9 0 -9 5 0 6 -8 11
-18 11 -9 0 -23 9 -30 20 -7 11 -22 20 -33 20 -16 0 -20 5 -16 19 5 22 -19 36
-80 47 -21 3 -45 12 -53 19 -22 17 -52 28 -72 26 -12 -2 -18 5 -18 19 0 15 -5
20 -15 17 -8 -4 -17 -2 -20 3 -3 5 -15 7 -27 5 -12 -3 -30 2 -39 11 -10 9 -26
14 -36 13 -26 -3 -75 19 -68 31 3 6 -2 13 -11 17 -10 4 -19 2 -22 -5 -2 -7
-10 -12 -18 -12 -15 0 -55 20 -64 32 -3 4 -31 9 -62 11 -30 3 -60 7 -66 11 -6
3 -13 2 -16 -2 -3 -5 -16 -8 -28 -7 -13 1 -29 3 -35 4 -7 0 -13 8 -13 17 0 11
-5 14 -16 10 -41 -16 -62 -17 -75 -3 -16 16 -89 21 -89 7 0 -13 -27 -13 -32 0
-2 6 -19 12 -38 14 -40 3 -110 25 -110 33 0 4 7 15 17 25 9 10 11 18 6 18 -18
0 -63 -27 -56 -33 3 -4 3 -7 0 -7 -4 0 -16 9 -27 20 -11 11 -33 20 -50 20 -18
0 -33 6 -36 15 -4 8 -12 15 -20 15 -8 0 -14 7 -14 15 0 9 -10 15 -26 15 -31 0
-64 17 -64 33 0 7 -20 25 -45 40 -25 16 -45 33 -45 38 0 5 -13 6 -28 3 -25 -5
-29 -3 -28 16 1 13 -8 27 -19 34 -11 6 -23 16 -27 22 -4 6 -25 29 -46 51 -21
22 -45 54 -53 71 -8 18 -21 32 -31 32 -23 0 -34 20 -11 20 17 1 17 1 1 14 -10
7 -18 20 -18 28 0 8 -12 20 -26 27 -19 8 -25 17 -21 31 4 15 0 20 -13 20 -14
0 -20 9 -22 33 -2 20 -8 32 -18 32 -8 0 -20 15 -27 34 -7 19 -19 39 -28 43 -8
5 -13 13 -10 19 4 5 -1 9 -9 9 -9 0 -16 11 -18 28 -2 16 -12 31 -25 37 -14 6
-23 18 -23 32 0 13 -5 23 -11 23 -5 0 -7 5 -4 11 4 6 -2 17 -14 25 -12 8 -21
22 -21 30 0 8 -7 17 -15 20 -8 4 -15 15 -15 26 0 10 -4 16 -10 13 -5 -3 -10 2
-10 12 0 10 -9 36 -20 58 -11 22 -20 47 -20 57 0 10 -4 18 -8 18 -5 0 -7 15
-4 33 4 30 3 31 -11 12 -13 -16 -16 -17 -21 -5 -12 35 -13 79 -3 83 7 2 12 16
12 31 l1 28 -17 -21 c-21 -26 -24 -20 -24 46 0 29 -5 53 -10 53 -17 0 -33 49
-68 210 -34 154 -34 159 -46 549 -50 1664 -216 3412 -472 4955 -53 324 -72
427 -151 836 l-51 265 13 110 c8 61 14 153 15 205 0 58 6 103 14 115 12 19 12
19 8 -2 -3 -13 -2 -23 3 -23 14 0 21 63 8 72 -10 6 -7 13 12 28 14 11 19 20
11 20 -11 0 -10 4 2 23 12 19 13 25 2 33 -14 10 -9 78 5 69 5 -3 6 4 3 15 -5
18 3 24 27 22 3 0 6 26 7 58 1 32 6 68 13 79 9 18 8 21 -12 22 -13 0 -17 3
-10 6 17 7 15 30 -4 37 -13 5 -14 9 -4 21 8 9 8 15 2 15 -6 0 -14 26 -17 58
-4 31 -16 85 -27 120 -11 34 -21 70 -23 80 -2 9 -4 17 -6 17 -3 0 -8 43 -13
118 -2 37 -9 74 -16 82 -6 7 -12 21 -14 31 -2 11 -5 24 -7 29 -2 6 0 24 4 40
10 44 -5 101 -26 97 -14 -2 -15 1 -7 23 13 33 12 36 -6 60 -13 17 -16 18 -24
5 -7 -11 -10 -8 -10 16 0 16 -5 35 -11 41 -8 8 -8 13 0 17 16 10 13 26 -4 26
-16 0 -20 16 -6 24 5 3 -2 32 -15 63 -13 32 -24 64 -24 71 0 6 -5 12 -11 12
-6 0 -9 6 -6 14 9 23 -21 135 -50 188 -28 52 -93 122 -165 180 -48 39 -185
118 -175 101 4 -6 1 -13 -6 -15 -16 -6 -38 2 -32 11 2 5 -6 13 -18 20 -18 9
-41 70 -120 309 -565 1708 -1232 2993 -1997 3846 -349 389 -700 668 -1075 852
-248 122 -478 193 -725 224 -99 12 -375 11 -474 -1z m495 -1279 c201 -21 375
-73 570 -170 875 -439 1687 -1691 2337 -3602 l81 -236 -24 -16 c-13 -9 -29
-16 -34 -16 -6 0 -14 -6 -18 -13 -4 -7 -21 -21 -38 -31 -38 -25 -52 -36 -73
-60 -9 -10 -30 -27 -47 -37 -16 -10 -24 -19 -16 -19 7 0 11 -6 8 -14 -6 -14
39 -114 58 -129 6 -6 6 -10 -2 -14 -15 -6 -17 -32 -3 -34 6 -1 15 -3 20 -4 6
-1 13 -3 18 -4 16 -3 -25 -21 -48 -21 -26 0 -60 -42 -60 -73 0 -9 -5 -17 -11
-19 -7 -2 -5 -16 6 -39 14 -29 22 -35 41 -31 21 4 24 1 24 -26 0 -22 -6 -32
-20 -37 -12 -4 -20 -14 -18 -23 1 -9 -3 -27 -10 -39 -7 -13 -9 -23 -5 -23 4 0
2 -5 -4 -11 -12 -12 12 -49 33 -49 7 0 15 -11 18 -25 4 -16 13 -25 26 -25 15
0 22 -9 27 -30 3 -16 11 -30 19 -30 7 0 16 -10 20 -22 4 -13 15 -33 25 -46 16
-21 18 -22 28 -5 9 16 10 16 11 -4 0 -17 6 -23 21 -23 14 0 19 -5 17 -17 -2
-11 -11 -17 -23 -16 -94 12 -131 25 -119 44 3 5 -2 9 -10 9 -9 0 -21 9 -28 19
-9 15 -15 17 -25 9 -10 -8 -19 -4 -38 16 -14 15 -29 25 -34 22 -15 -10 -73 54
-68 75 7 25 -8 33 -26 14 -16 -16 -62 -21 -53 -6 3 5 -5 9 -19 9 -26 0 -58 25
-47 37 4 4 -10 5 -30 2 -22 -3 -45 1 -56 9 -11 7 -22 11 -25 7 -4 -3 -12 6
-18 21 -13 28 -29 35 -29 12 0 -21 -41 -12 -61 13 -12 15 -19 17 -28 8 -8 -8
-11 -8 -11 1 0 7 -9 12 -20 12 -11 0 -20 5 -20 11 0 6 -5 9 -11 7 -6 -2 -10
-7 -9 -12 2 -13 -33 -35 -56 -36 -12 0 -27 7 -34 15 -7 9 -20 13 -28 10 -10
-4 -12 0 -8 12 6 15 5 16 -5 6 -21 -21 -32 -15 -26 14 5 25 4 26 -8 9 -8 -10
-19 -15 -26 -10 -7 4 -10 3 -5 -4 3 -6 2 -13 -4 -17 -5 -3 -10 1 -10 9 0 19
-37 41 -42 25 -5 -14 -41 -19 -50 -6 -4 7 -11 7 -21 -1 -7 -7 -17 -9 -20 -5
-4 3 -7 0 -7 -7 0 -9 -5 -7 -14 5 -14 19 -51 31 -40 13 12 -18 -19 -28 -32
-10 -10 14 -15 15 -25 5 -15 -15 -33 -17 -24 -3 4 7 -2 7 -18 1 -14 -6 -28 -7
-31 -4 -3 4 -6 0 -6 -8 0 -8 -7 -23 -15 -33 -11 -15 -18 -17 -26 -9 -6 6 -18
9 -26 6 -9 -4 -16 2 -20 16 -6 22 -23 29 -23 10 0 -8 -5 -8 -15 1 -8 7 -26 10
-40 8 -14 -3 -25 -1 -25 5 0 5 -6 4 -15 -3 -18 -15 -56 -4 -49 15 5 12 -26 28
-58 30 -4 0 -16 8 -28 17 -19 17 -20 17 -20 -3 0 -11 -5 -30 -11 -41 -8 -15
-8 -19 0 -14 6 4 11 0 11 -8 0 -11 -10 -16 -31 -16 -18 0 -37 -6 -43 -14 -6
-8 -26 -17 -45 -20 -19 -2 -38 -11 -42 -18 -6 -9 -16 -5 -39 17 -26 25 -32 27
-40 15 -15 -23 -11 -1 8 57 10 29 25 61 34 72 9 11 14 22 11 25 -4 3 -2 6 4 6
6 0 18 20 27 44 17 43 17 45 -3 65 -10 10 -22 17 -25 14 -3 -4 -6 -1 -6 5 0 7
6 12 13 12 8 0 7 4 -3 10 -12 8 -13 13 -2 30 15 24 9 26 -12 4 -15 -14 -16
-14 -17 3 -1 10 0 23 1 28 6 29 6 104 -1 133 -4 17 -3 35 2 38 9 5 8 32 -3 50
-4 6 -6 21 -3 33 2 11 0 21 -4 21 -5 0 -15 21 -22 46 -8 25 -22 50 -32 55 -13
8 -16 19 -12 52 2 23 2 34 -1 25 -3 -10 -12 -18 -20 -18 -17 0 -18 12 -2 28 9
9 9 12 0 12 -7 0 -12 8 -12 18 0 9 -14 37 -30 62 -37 56 -72 146 -148 380 -71
218 -145 429 -210 595 -25 66 -47 122 -48 125 0 3 -4 13 -8 22 -4 9 -9 22 -10
30 -5 31 -38 118 -47 124 -5 3 -7 9 -4 14 8 12 -94 312 -152 449 -24 58 -75
196 -113 307 -38 111 -88 241 -111 290 -67 144 -99 225 -99 250 0 13 -4 24 -9
24 -5 0 -7 9 -4 20 3 13 0 20 -8 20 -11 0 -11 2 -1 8 7 5 14 36 16 73 2 35 4
70 5 77 1 7 5 11 9 8 15 -9 11 52 -4 65 -15 12 -20 34 -5 25 5 -4 7 3 4 15 -4
16 -8 17 -14 7 -7 -10 -9 -11 -9 0 0 7 -4 11 -9 7 -15 -9 -10 -65 6 -65 7 0
13 -6 13 -13 0 -21 -12 -28 -27 -16 -10 9 -13 7 -13 -9 0 -25 -16 -37 -26 -20
-4 6 -2 14 4 16 7 2 12 11 12 19 0 10 -6 13 -17 9 -27 -11 -34 16 -12 40 l21
22 -21 7 c-12 3 -21 11 -21 16 0 5 -7 9 -15 9 -11 0 -15 11 -15 36 0 28 -5 37
-20 41 -16 4 -18 8 -9 19 6 8 15 11 20 8 15 -9 10 19 -8 38 -9 10 -11 18 -6
18 6 0 13 11 15 25 3 13 1 22 -3 19 -5 -3 -9 15 -9 40 0 25 -5 48 -11 52 -7 4
-10 -3 -9 -17 6 -73 -1 -119 -19 -129 -18 -9 -19 -7 -15 40 4 45 2 50 -16 50
-11 0 -20 5 -20 10 0 14 -28 12 -33 -2 -8 -24 -18 -1 -11 26 4 16 13 26 24 26
11 0 20 10 24 30 6 31 26 42 26 15 0 -8 7 -15 15 -15 9 0 15 9 15 23 0 18 -2
19 -10 7 -6 -10 -10 -11 -10 -2 0 6 -8 12 -18 12 -10 0 -27 7 -38 15 -19 14
-19 14 1 16 11 1 26 2 33 2 6 -1 12 3 12 8 0 5 -8 9 -17 10 -15 0 -15 2 2 9
23 10 22 10 -23 16 -24 3 -31 1 -26 -8 5 -7 2 -9 -7 -6 -11 4 -13 -4 -11 -43
4 -47 3 -49 -22 -49 -21 0 -26 5 -26 25 0 18 4 23 15 19 15 -6 21 11 7 20 -4
2 -7 25 -7 50 0 25 -3 46 -7 46 -5 0 -8 6 -8 14 0 8 -14 28 -31 45 -17 17 -28
35 -24 41 9 14 25 13 25 -2 0 -12 45 -16 75 -8 6 1 15 1 20 0 5 -1 6 2 2 6 -4
5 -18 9 -30 9 -14 0 -23 8 -27 25 -7 32 -40 40 -40 11 0 -15 -6 -21 -21 -21
-14 0 -18 4 -12 13 4 6 8 17 9 22 0 6 2 16 2 23 1 7 16 12 34 12 l31 0 -21 19
c-12 10 -22 26 -22 35 0 20 -36 22 -43 2 -3 -8 -1 -17 6 -20 7 -2 4 -5 -5 -5
-11 -1 -18 6 -18 18 0 11 -5 23 -11 26 -7 5 -5 13 6 25 18 20 106 39 229 50
123 11 136 11 247 0z m-1548 -792 c17 -20 24 -24 18 -12 -9 19 -7 22 15 27 16
3 28 -1 31 -9 3 -8 11 -14 19 -14 17 0 68 -47 56 -52 -17 -6 7 -48 26 -48 17
0 64 -40 52 -44 -2 0 4 -23 14 -51 11 -27 21 -44 24 -37 2 6 8 12 14 12 5 0 6
-9 3 -21 -5 -14 -3 -19 3 -15 6 3 13 2 16 -3 4 -5 2 -13 -4 -16 -8 -5 -7 -12
2 -23 10 -12 10 -16 1 -19 -20 -7 -15 -23 6 -23 11 0 23 -4 26 -10 3 -5 1 -10
-4 -10 -6 0 -11 -4 -11 -10 0 -5 11 -10 24 -10 23 0 29 -10 50 -74 5 -14 9
-16 20 -7 10 9 16 9 21 1 4 -6 4 -14 1 -17 -3 -4 1 -15 11 -25 9 -10 13 -18 8
-18 -4 0 -2 -7 6 -16 10 -13 10 -17 -1 -24 -12 -7 -10 -16 9 -50 12 -22 21
-52 19 -68 -2 -17 2 -26 9 -25 8 2 11 -8 8 -27 -3 -24 0 -30 16 -30 10 0 19
-4 19 -10 0 -5 -7 -10 -15 -10 -21 0 -19 -26 4 -58 70 -100 87 -182 95 -441 4
-112 8 -206 10 -210 3 -6 14 -128 22 -261 2 -36 3 -128 3 -205 -3 -362 -2
-477 5 -565 5 -52 10 -239 11 -415 2 -366 6 -397 80 -577 26 -62 67 -165 91
-228 24 -63 49 -124 53 -135 5 -11 12 -31 15 -45 3 -14 17 -38 30 -53 14 -16
23 -34 20 -41 -3 -7 4 -21 16 -31 22 -20 26 -41 8 -47 -13 -5 3 -40 18 -39 5
1 10 -13 11 -31 1 -18 6 -34 12 -36 6 -2 11 -14 11 -28 0 -20 22 -78 52 -138
10 -18 20 -60 21 -83 0 -7 4 -13 9 -13 5 0 7 -4 4 -9 -4 -5 -1 -22 5 -37 11
-31 23 -159 21 -239 0 -29 3 -44 7 -36 6 9 12 3 20 -19 6 -18 8 -36 6 -40 -3
-5 -1 -11 4 -14 5 -3 12 -22 16 -42 6 -34 23 -73 36 -84 11 -10 20 -62 9 -55
-19 12 -10 -24 11 -44 13 -12 17 -21 10 -26 -8 -4 -6 -11 4 -21 8 -9 13 -20
10 -25 -4 -5 1 -9 9 -9 9 0 17 -9 18 -22 0 -13 2 -27 2 -33 2 -12 38 -68 49
-76 5 -3 8 -24 7 -45 -3 -50 7 -75 27 -67 11 4 14 2 9 -5 -4 -6 -2 -21 4 -33
13 -23 5 -73 -9 -64 -5 3 -7 -4 -4 -15 3 -11 1 -20 -5 -20 -9 0 -19 -60 -22
-123 -1 -10 -8 -21 -16 -24 -8 -3 -14 -16 -14 -30 0 -33 -17 -63 -36 -63 -8 0
-12 4 -9 10 4 6 -1 7 -11 3 -11 -4 -13 -8 -6 -11 16 -5 16 -33 0 -29 -7 1 -12
-3 -11 -9 1 -7 -9 -15 -22 -18 -22 -6 -23 -9 -13 -25 9 -15 8 -22 -4 -34 -10
-11 -19 -12 -26 -5 -7 7 -12 0 -17 -24 -4 -18 -23 -57 -41 -85 -19 -29 -31
-53 -28 -53 2 0 -4 -9 -15 -21 -26 -28 -82 -132 -104 -194 -21 -60 -22 -202 0
-279 8 -28 16 -64 19 -80 3 -16 14 -41 25 -55 10 -14 21 -44 23 -66 3 -22 14
-74 26 -115 12 -41 25 -104 29 -140 8 -63 6 -306 -3 -462 -3 -45 -1 -80 5 -83
5 -4 7 -11 4 -16 -4 -5 -1 -9 4 -9 6 0 11 -6 11 -13 0 -11 60 -98 125 -182 39
-49 222 -331 245 -375 11 -22 17 -40 13 -40 -5 0 -3 -4 2 -8 6 -4 16 -19 24
-34 8 -15 21 -30 30 -33 10 -4 7 3 -8 19 -13 13 -20 29 -16 35 3 6 1 11 -4 11
-6 0 -11 5 -11 12 0 6 3 9 6 5 4 -3 14 4 24 16 13 15 15 27 9 39 -6 10 -5 19
1 23 9 6 -7 54 -22 65 -10 7 -11 69 -3 97 6 18 2 25 -20 33 -16 6 -25 16 -22
23 3 8 -4 19 -14 25 -20 13 -26 42 -9 42 6 0 10 5 10 10 0 6 -7 10 -15 10 -8
0 -15 6 -15 13 0 7 -9 18 -20 25 -11 6 -17 18 -14 26 3 9 -1 13 -13 13 -11 -1
-17 4 -15 12 4 20 -7 61 -16 60 -4 -1 -14 -1 -22 0 -11 1 -11 4 -2 13 7 7 12
27 12 45 0 25 -4 33 -17 33 -14 1 -13 4 6 14 19 10 21 15 10 22 -8 5 -21 9
-29 9 -11 0 -14 10 -12 41 2 30 -1 43 -12 47 -25 10 -20 54 6 60 26 7 49 -9
46 -32 -2 -11 5 -16 22 -16 17 0 26 -7 30 -25 3 -14 14 -26 23 -28 10 -2 33
-19 51 -38 18 -19 37 -34 43 -34 5 0 18 -9 28 -20 10 -11 24 -20 30 -20 7 0
18 -7 25 -15 7 -8 16 -12 21 -9 5 2 22 -9 39 -25 19 -17 39 -28 51 -26 14 3
19 -2 20 -18 1 -17 2 -18 6 -4 6 23 14 22 43 -5 14 -13 30 -23 37 -23 7 0 12
-4 10 -9 -1 -5 8 -12 21 -17 12 -5 22 -15 22 -24 0 -8 3 -15 8 -15 13 0 8
-133 -5 -137 -18 -6 -16 -23 2 -23 19 0 19 -14 0 -30 -12 -10 -13 -15 -4 -21
7 -4 14 -19 16 -34 3 -20 1 -25 -9 -19 -8 5 -8 1 2 -11 8 -10 14 -21 14 -24
-1 -3 1 -12 3 -18 8 -20 -5 -45 -19 -37 -7 4 -5 -2 5 -13 14 -17 17 -29 11
-59 -5 -22 -7 -45 -5 -53 1 -8 -2 -10 -9 -6 -7 4 -4 -4 5 -19 11 -16 14 -32 9
-43 -4 -10 -7 -24 -7 -30 1 -44 4 -53 13 -48 14 9 12 -1 -6 -37 -14 -28 -14
-30 0 -25 21 8 29 -8 16 -33 -6 -11 -7 -20 -2 -20 6 0 12 -10 15 -22 5 -17 9
-19 21 -9 12 10 16 8 21 -10 4 -12 2 -24 -4 -28 -11 -7 -10 -28 5 -141 7 -60
-28 -323 -57 -416 -6 -18 -14 -54 -19 -80 -5 -27 -16 -83 -25 -124 -17 -79
-20 -91 -30 -180 -14 -117 -52 -227 -229 -675 -90 -226 -95 -240 -111 -314
-37 -180 -29 -313 30 -486 19 -55 37 -108 39 -117 7 -27 52 -103 77 -130 13
-14 37 -44 53 -66 16 -23 33 -39 38 -36 4 3 8 1 8 -5 0 -5 9 -12 19 -16 10 -3
22 -17 25 -31 4 -14 11 -22 16 -19 6 3 10 -1 10 -10 0 -9 4 -14 9 -10 6 3 13
0 18 -8 11 -18 143 -113 154 -110 4 2 10 -5 13 -15 4 -10 25 -26 49 -36 23 -9
53 -32 67 -51 14 -18 27 -32 30 -30 3 2 12 0 20 -6 11 -6 12 -9 2 -9 -7 0 -10
-5 -7 -10 4 -6 10 -8 14 -6 3 3 17 -8 30 -24 13 -17 28 -27 37 -23 8 3 14 -1
14 -10 0 -8 17 -32 38 -53 88 -90 179 -224 247 -369 21 -44 42 -83 48 -86 5
-3 8 -8 7 -10 -1 -2 4 -17 11 -34 6 -16 13 -39 14 -51 2 -11 12 -40 23 -65 18
-40 55 -137 57 -149 1 -3 11 -35 23 -72 11 -37 24 -90 27 -118 3 -28 19 -85
35 -126 38 -93 51 -149 38 -162 -6 -6 -3 -15 6 -25 10 -9 12 -18 6 -22 -11 -7
-10 -74 2 -81 4 -3 8 -15 8 -27 0 -18 2 -19 10 -7 8 12 10 9 10 -13 0 -19 8
-32 29 -45 15 -9 29 -20 29 -25 2 -14 19 -39 26 -38 14 3 151 -150 277 -308
161 -203 201 -261 250 -366 43 -92 119 -309 119 -341 0 -12 11 -37 24 -56 40
-60 93 -162 100 -193 10 -42 48 -125 58 -125 4 0 8 -6 8 -14 0 -7 14 -29 30
-47 82 -91 145 -209 156 -290 4 -30 13 -66 20 -81 8 -15 14 -36 14 -48 0 -11
4 -20 9 -20 5 0 12 -14 16 -31 6 -25 2 -34 -20 -55 -14 -13 -28 -24 -31 -24
-3 0 -19 -14 -36 -31 -17 -16 -37 -28 -44 -25 -8 3 -19 -5 -25 -17 -7 -12 -24
-32 -38 -45 -36 -31 -139 -92 -157 -92 -8 0 -13 -3 -11 -8 3 -9 -40 -52 -52
-52 -5 0 -12 -7 -15 -16 -3 -8 -10 -12 -16 -9 -5 3 -10 2 -10 -4 0 -5 -14 -7
-33 -4 -24 4 -37 0 -51 -16 -11 -12 -24 -21 -29 -21 -5 0 -20 -12 -33 -26 -13
-14 -29 -22 -34 -19 -6 4 -21 -2 -34 -12 -13 -10 -32 -24 -43 -32 -11 -7 -77
-53 -148 -102 -70 -49 -186 -118 -257 -154 -70 -36 -143 -79 -161 -94 -17 -16
-35 -28 -39 -27 -4 0 -15 -6 -25 -14 -10 -8 -34 -26 -53 -39 -35 -24 -50 -37
-92 -76 -11 -11 -17 -14 -13 -6 7 11 -55 -35 -132 -98 -12 -10 -25 -16 -28
-13 -3 3 -5 1 -5 -5 0 -6 -19 -23 -42 -39 -23 -16 -51 -38 -63 -49 -61 -58
-335 -272 -523 -408 -256 -186 -255 -185 -563 -499 -156 -158 -291 -290 -301
-294 -10 -3 -18 -11 -18 -19 0 -7 -4 -15 -9 -17 -16 -6 -144 -121 -214 -192
-82 -84 -115 -141 -163 -276 -51 -147 -62 -168 -239 -445 -28 -43 -67 -140
-70 -170 -12 -140 -18 -256 -17 -320 2 -75 4 -92 17 -155 3 -14 7 -34 9 -45
18 -85 99 -275 119 -275 4 0 7 -5 7 -11 0 -6 7 -17 15 -25 8 -9 15 -12 15 -8
0 4 8 0 18 -8 9 -8 65 -40 123 -70 59 -31 148 -82 200 -113 216 -131 297 -164
663 -266 521 -144 592 -170 906 -322 233 -114 450 -212 580 -262 52 -20 99
-41 104 -46 6 -5 18 -9 27 -9 10 0 49 -16 88 -36 39 -20 77 -37 84 -38 8 -1
25 -9 38 -17 24 -16 58 -32 71 -33 4 -1 12 -6 19 -13 6 -6 18 -9 27 -6 11 5
13 3 7 -7 -5 -8 -4 -11 3 -6 6 4 19 2 29 -3 25 -13 57 -24 65 -23 4 1 23 -5
42 -13 20 -9 39 -16 43 -16 5 -1 19 -5 32 -10 13 -5 36 -11 52 -13 16 -1 32
-6 37 -11 4 -5 1 -5 -7 0 -9 5 -12 4 -7 -3 4 -6 13 -9 20 -6 11 4 102 -21 161
-46 11 -4 56 -20 100 -35 44 -15 91 -32 105 -38 14 -6 27 -11 30 -11 18 -4
340 -164 355 -176 7 -5 15 -7 18 -3 4 3 7 1 7 -5 0 -7 3 -11 8 -10 4 1 36 -12
72 -29 35 -18 69 -29 74 -26 5 3 6 1 2 -5 -3 -6 -2 -13 4 -17 5 -3 10 -1 10 5
0 7 12 3 28 -8 15 -10 42 -25 60 -33 17 -8 32 -18 32 -23 0 -4 7 -5 16 -2 10
4 13 2 8 -6 -5 -8 -2 -9 10 -5 11 5 15 3 10 -5 -5 -8 -2 -9 9 -5 9 3 19 1 23
-5 5 -7 2 -8 -6 -3 -9 5 -11 4 -6 -3 4 -7 13 -12 21 -12 12 0 41 -15 128 -69
20 -13 37 -28 37 -34 0 -21 -129 -514 -199 -758 -682 -2393 -1604 -3975 -2610
-4478 -202 -101 -371 -151 -581 -171 -267 -26 -542 31 -821 171 -933 466
-1795 1861 -2461 3979 -677 2157 -1109 4940 -1238 7970 -46 1096 -46 2484 0
3580 86 2023 302 3904 645 5615 520 2595 1291 4562 2211 5640 49 58 91 105 94
105 3 0 18 -14 33 -32z m1195 -4447 c70 -83 85 -116 87 -191 3 -79 9 -100 41
-148 19 -28 22 -38 12 -45 -10 -7 -10 -10 0 -14 6 -2 12 -17 12 -33 0 -15 7
-33 15 -40 9 -7 15 -29 15 -50 0 -21 4 -40 9 -42 5 -1 11 -10 13 -18 2 -8 8
-19 15 -25 7 -6 15 -47 18 -95 6 -85 5 -85 -12 -52 -9 17 -20 32 -25 32 -4 0
-8 9 -8 19 0 11 -5 23 -11 27 -6 3 -9 15 -6 25 3 12 0 19 -9 19 -8 0 -14 6
-13 13 1 6 -3 25 -9 40 -7 16 -12 34 -12 42 0 8 -5 17 -11 20 -5 4 -9 19 -8
33 2 32 -10 72 -22 72 -5 0 -9 9 -9 20 0 12 -9 40 -20 62 -11 23 -20 52 -20
66 0 13 -5 32 -10 43 -6 11 -12 46 -14 78 -2 38 -10 70 -24 93 -12 20 -22 45
-22 56 0 12 -8 26 -17 31 -10 6 -13 11 -7 11 6 0 29 -22 52 -49z m382 -1032
c22 -13 42 -31 46 -41 3 -10 9 -18 14 -18 4 0 8 -16 8 -37 0 -33 18 -57 45
-58 4 0 7 -3 7 -7 0 -5 0 -13 0 -19 0 -5 -4 -7 -10 -4 -5 3 -10 1 -10 -5 0 -6
6 -10 13 -8 13 3 17 -3 17 -23 0 -5 -4 -7 -10 -4 -5 3 -10 1 -10 -4 0 -6 6
-11 14 -11 15 0 26 -21 26 -50 0 -11 11 -22 28 -28 l27 -10 -25 -2 -25 -1 28
-15 c18 -10 27 -23 27 -39 0 -17 6 -25 18 -26 15 0 15 -1 -2 -8 -19 -7 -18 -8
4 -24 16 -11 23 -27 25 -57 1 -26 9 -46 21 -55 18 -14 18 -14 -6 -15 -19 0
-22 -2 -10 -9 8 -6 17 -8 20 -6 3 2 4 -12 2 -31 -3 -21 0 -34 7 -34 6 0 11 -9
11 -19 0 -11 5 -23 10 -26 8 -5 7 -11 -1 -21 -9 -11 -9 -14 0 -14 8 0 10 -8 6
-19 -3 -11 -1 -22 5 -26 6 -4 10 -21 8 -38 -1 -18 3 -41 9 -52 6 -11 9 -30 8
-42 -1 -16 4 -23 16 -23 30 0 31 -18 2 -34 l-28 -15 27 -1 c23 0 27 -4 26 -30
-1 -17 6 -38 15 -48 11 -12 13 -22 6 -35 -8 -13 -6 -19 5 -23 8 -3 13 -11 10
-17 -5 -15 34 -80 44 -73 5 3 14 -11 21 -30 7 -18 21 -39 32 -45 12 -6 18 -17
15 -25 -6 -16 13 -64 26 -64 4 0 8 -11 8 -24 0 -15 7 -26 20 -29 13 -3 22 -17
26 -36 4 -21 12 -31 24 -31 18 0 35 -25 31 -47 -1 -7 3 -13 9 -13 5 0 10 -7
10 -14 0 -21 44 -66 64 -66 21 0 21 -16 0 -24 -14 -5 -14 -8 0 -21 8 -8 19
-15 25 -15 6 0 10 -3 10 -7 -4 -27 4 -45 24 -53 12 -5 18 -9 13 -9 -5 -1 7
-15 27 -32 27 -23 34 -35 27 -44 -12 -14 -3 -25 19 -25 25 0 100 -104 95 -132
-2 -12 -2 -17 2 -10 7 16 24 6 24 -15 0 -8 12 -24 26 -35 14 -11 23 -26 20
-33 -6 -17 18 -27 31 -14 7 7 15 -1 23 -20 7 -17 19 -31 26 -31 8 0 14 -2 14
-4 0 -2 3 -13 6 -23 4 -13 3 -15 -4 -4 -7 9 -12 10 -16 2 -4 -6 0 -13 8 -16 9
-3 23 -7 32 -10 11 -3 14 -12 11 -25 -3 -11 2 -27 10 -36 8 -8 13 -18 9 -21
-11 -11 -50 -11 -64 0 -10 8 -16 7 -21 -2 -4 -6 -14 -11 -21 -9 -7 2 -15 -3
-17 -9 -3 -8 4 -13 17 -13 l22 0 -23 -20 c-20 -16 -21 -19 -6 -20 14 0 20 -8
16 -22 0 -2 4 -15 10 -30 6 -17 7 -29 1 -33 -6 -3 -1 -18 11 -34 18 -25 19
-31 7 -51 -10 -18 -10 -24 0 -27 6 -3 12 -12 12 -22 0 -9 6 -23 13 -30 10 -11
8 -12 -10 -6 -13 3 -23 2 -23 -3 0 -5 10 -13 23 -17 13 -4 17 -8 10 -12 -19
-7 -16 -21 4 -19 12 0 19 -7 21 -21 2 -13 -1 -23 -7 -23 -6 0 -11 -4 -11 -10
0 -5 7 -10 15 -10 8 0 14 -3 14 -7 -3 -21 3 -32 20 -38 13 -4 22 -19 26 -45 4
-22 11 -40 15 -40 5 0 12 -17 16 -37 4 -21 13 -47 20 -58 7 -11 16 -37 19 -57
4 -21 11 -38 16 -38 5 0 9 -11 9 -24 0 -13 7 -29 15 -36 12 -10 13 -15 4 -20
-8 -5 -5 -14 9 -28 12 -12 17 -24 12 -27 -12 -7 -13 -26 -2 -24 24 4 34 -2 23
-14 -7 -9 -8 -24 -1 -47 5 -18 7 -37 4 -42 -3 -5 3 -12 15 -15 24 -6 29 -33 6
-33 -18 0 -19 -12 -3 -28 8 -8 8 -15 -3 -29 -13 -16 -12 -17 4 -4 9 7 17 12
18 10 0 -2 2 -30 4 -62 2 -32 9 -64 15 -72 7 -8 8 -15 3 -15 -5 0 -9 -16 -9
-35 1 -19 6 -35 12 -35 16 0 25 -53 11 -62 -9 -6 -8 -8 2 -8 9 0 12 -8 8 -26
-3 -16 0 -28 9 -31 10 -3 10 -10 2 -28 -12 -26 -4 -60 11 -50 5 3 12 1 16 -5
3 -5 -1 -10 -9 -10 -9 0 -16 -4 -16 -10 0 -5 5 -10 11 -10 7 0 9 -11 6 -26 -3
-16 0 -28 9 -31 11 -4 12 -9 3 -19 -9 -11 -8 -14 4 -14 19 0 25 -33 16 -77 -4
-18 -3 -33 2 -33 5 0 9 -7 9 -15 0 -9 7 -18 15 -21 8 -4 12 -10 9 -15 -3 -5
-8 -7 -12 -5 -4 2 -7 -7 -7 -20 0 -13 3 -24 6 -24 3 0 4 -18 2 -40 -2 -34 -1
-38 15 -33 14 6 15 4 4 -9 -10 -13 -10 -17 2 -21 10 -4 12 -17 9 -50 -3 -24 0
-53 6 -65 8 -15 8 -21 -2 -25 -9 -3 -9 -9 1 -27 9 -14 10 -26 4 -32 -10 -10 7
-100 18 -93 4 2 5 -7 2 -20 -2 -14 -10 -25 -18 -25 -9 0 -11 -10 -7 -35 3 -21
1 -41 -7 -50 -7 -8 -10 -21 -7 -30 7 -17 -9 -30 -18 -15 -9 15 -22 12 -29 -6
-3 -8 -2 -12 4 -9 6 3 10 -1 10 -9 0 -23 -18 -29 -35 -12 -16 15 -45 12 -45
-6 0 -5 -8 -7 -18 -4 -10 4 -27 -1 -38 -10 -18 -14 -15 -15 39 -10 34 3 55 1
52 -5 -4 -5 -12 -9 -19 -9 -8 0 -26 -6 -41 -14 -15 -8 -33 -12 -40 -9 -15 5
-65 -24 -65 -38 0 -5 9 -9 20 -9 12 0 20 -7 20 -16 0 -9 8 -23 18 -31 15 -13
15 -13 -6 -3 -12 6 -26 9 -31 6 -5 -3 -15 2 -22 11 -10 12 -10 14 -1 9 16 -10
15 0 -4 29 -22 34 -32 31 -40 -10 -8 -42 -29 -46 -39 -7 l-7 27 -17 -21 -17
-22 -10 22 c-5 11 -16 21 -24 22 -29 2 -32 4 -23 17 19 24 11 43 -16 39 -22
-3 -26 1 -27 22 -2 23 6 31 29 27 4 0 7 6 7 15 0 8 -4 12 -10 9 -5 -3 -10 -1
-10 4 0 19 -17 12 -23 -9 -3 -11 -10 -20 -15 -20 -17 0 0 42 18 47 11 3 16 11
13 23 -4 13 4 23 26 34 30 16 31 16 31 -5 0 -16 -5 -20 -20 -16 -16 4 -20 0
-20 -20 0 -22 1 -23 16 -9 23 23 27 20 20 -17 -3 -18 -3 -36 0 -40 9 -9 44 11
44 26 0 8 -3 8 -9 -1 -7 -11 -9 -11 -14 1 -4 10 2 17 19 21 23 6 34 26 14 26
-5 0 -10 4 -10 9 0 12 42 19 65 11 19 -7 19 -7 -1 -18 -12 -6 -24 -8 -28 -5
-3 3 -6 1 -6 -5 0 -6 8 -13 18 -15 12 -3 10 -5 -7 -6 -17 -1 -21 -5 -17 -17 3
-9 6 -21 6 -27 0 -8 4 -7 9 2 7 11 10 9 16 -9 4 -14 3 -25 -5 -30 -13 -8 -6
-30 9 -30 18 0 29 219 12 230 -4 3 -10 19 -13 36 -3 24 -1 31 9 27 7 -3 13 0
13 6 0 6 -5 11 -12 11 -6 0 -1 9 12 20 13 11 18 20 11 20 -8 0 -9 5 -2 19 7
13 6 23 -3 36 -11 15 -10 21 6 37 22 22 23 54 3 74 -21 22 -19 37 5 31 20 -5
28 7 11 17 -5 3 -7 34 -4 68 3 35 5 68 4 73 0 6 -2 70 -5 143 -2 73 -6 136
-10 139 -3 4 -6 14 -6 24 0 10 -7 22 -16 27 -12 7 -18 28 -21 73 -5 71 -28
165 -43 174 -6 3 -10 17 -10 29 0 13 -7 29 -15 36 -8 7 -12 16 -10 20 7 11
-45 123 -62 133 -7 4 -13 15 -13 22 0 8 -5 15 -12 15 -9 0 -9 3 0 12 8 8 6 17
-8 36 -11 14 -20 33 -20 42 0 10 -7 30 -15 46 -8 16 -17 48 -21 71 -4 30 -11
43 -23 44 -14 1 -13 2 2 6 20 5 23 39 5 46 -12 5 16 11 35 8 12 -2 8 11 -10
31 -9 10 -11 18 -5 18 6 0 13 -6 15 -12 3 -7 6 4 6 25 1 27 5 36 14 32 6 -4 4
0 -7 9 -13 11 -17 22 -12 41 4 17 3 24 -4 20 -5 -3 -10 -1 -10 4 0 6 6 11 13
11 6 0 2 8 -9 18 -16 12 -21 26 -20 50 2 25 -1 32 -16 32 -17 0 -23 15 -20 53
1 9 -3 17 -8 17 -6 0 -10 16 -10 35 0 19 -5 35 -11 35 -6 0 -8 7 -5 16 4 9 1
23 -5 30 -6 8 -9 21 -5 29 3 9 0 15 -10 15 -10 0 -14 6 -11 14 3 8 -1 17 -10
20 -12 5 -13 9 -4 20 13 15 5 66 -10 66 -5 0 -9 8 -9 18 0 10 -16 48 -35 84
-25 47 -40 65 -50 61 -9 -3 -15 1 -15 10 0 19 -56 77 -75 77 -25 0 -37 -59
-40 -193 -1 -81 -7 -143 -15 -157 -9 -17 -9 -24 -1 -30 12 -7 12 -80 1 -80 -3
0 -11 -14 -18 -32 -9 -24 -9 -34 0 -39 8 -5 6 -18 -7 -45 -14 -29 -15 -41 -6
-56 9 -15 8 -18 -5 -18 -12 0 -14 -5 -8 -17 4 -10 7 -31 7 -48 -7 -223 -6
-485 1 -485 5 0 4 -6 -2 -13 -11 -13 -10 -82 2 -110 5 -10 3 -23 -4 -32 -8 -9
-10 -29 -7 -49 3 -18 1 -38 -4 -43 -14 -14 -20 -71 -8 -78 16 -10 11 -48 -6
-42 -8 4 -17 2 -20 -3 -3 -4 0 -10 6 -12 6 -2 13 -28 15 -58 2 -30 4 -55 4
-55 7 0 6 -36 -1 -41 -11 -7 -12 -84 -1 -84 12 0 8 -59 -6 -91 -8 -19 -7 -30
0 -37 8 -8 8 -34 -1 -94 -7 -46 -10 -96 -7 -112 3 -16 3 -26 -1 -23 -3 3 -11
1 -17 -6 -10 -9 -10 -16 1 -37 18 -34 16 -48 -7 -62 -20 -13 -27 -29 -12 -27
21 4 20 -4 -2 -28 -21 -23 -24 -34 -20 -72 4 -43 3 -45 -11 -27 -16 21 -19 41
-16 94 2 17 -2 32 -7 32 -5 0 -3 23 5 53 8 28 12 69 11 89 -2 21 1 39 6 41 5
2 10 43 12 93 1 49 6 100 11 114 5 14 8 52 7 85 -2 75 -13 279 -15 291 -1 5
-1 11 0 14 4 10 2 135 -2 168 -3 18 -1 35 4 38 5 3 6 10 3 16 -4 6 -8 57 -9
114 -1 57 -4 107 -8 110 -4 4 -3 12 2 18 15 20 20 60 9 73 -6 8 -11 27 -10 44
1 25 -11 34 -14 11 0 -4 -6 -20 -13 -37 -7 -16 -10 -43 -6 -60 9 -44 5 -139
-6 -143 -5 -2 -9 -22 -9 -45 0 -23 -8 -96 -19 -162 -10 -66 -19 -134 -20 -152
-1 -18 -6 -42 -11 -55 -7 -16 -8 12 -4 92 3 63 10 122 14 130 4 8 8 48 9 88 0
41 3 78 6 83 3 4 8 46 11 91 7 98 6 69 7 338 0 458 -2 509 -20 539 -9 14 -11
26 -6 30 6 3 10 30 11 60 1 44 -3 58 -19 69 -15 10 -17 17 -9 32 8 15 6 24 -9
39 -19 19 -18 19 3 30 28 16 47 56 33 70 -7 7 -8 11 -1 11 6 0 16 33 23 73 7
39 19 85 28 100 11 20 12 31 4 41 -6 7 -10 31 -8 54 2 22 -3 48 -10 58 -7 10
-13 27 -13 38 0 12 -6 33 -14 47 -8 17 -10 32 -4 42 6 12 3 19 -12 27 -14 8
-19 17 -15 29 3 12 0 21 -10 25 -9 3 -14 10 -10 15 3 5 -4 12 -15 16 -18 6
-26 34 -21 68 0 4 -6 7 -14 7 -10 0 -15 10 -15 26 0 24 -2 26 -34 20 -30 -6
-37 -3 -58 26 -36 51 -46 80 -34 100 7 12 7 29 0 57 -7 25 -7 44 -1 50 6 6 1
11 -12 16 -12 3 -21 11 -21 16 0 5 -7 9 -15 9 -8 0 -19 9 -25 20 -6 11 -19 20
-29 20 -12 0 -23 11 -30 30 -5 17 -14 30 -19 30 -14 0 -22 -39 -10 -46 5 -4 8
-22 6 -40 -3 -26 -1 -33 12 -31 8 1 15 -5 15 -13 0 -8 -7 -15 -15 -15 -8 0
-18 -8 -23 -19 -6 -15 -14 -18 -50 -13 -73 10 -100 73 -39 92 41 12 40 21 0
39 -30 13 -34 12 -50 -6 -10 -11 -18 -26 -18 -34 0 -17 50 -123 61 -130 5 -3
9 -16 9 -30 0 -21 4 -24 39 -24 26 0 41 -5 45 -16 11 -29 6 -40 -21 -54 -16
-8 -43 -27 -60 -44 -18 -16 -33 -26 -33 -20 1 14 43 60 63 67 32 12 20 43 -21
55 -24 7 -44 22 -56 42 -16 29 -19 30 -35 16 -10 -9 -29 -14 -49 -11 -17 2
-33 1 -36 -3 -2 -4 -7 -42 -10 -84 -4 -66 -2 -80 14 -101 19 -24 40 -68 46
-97 4 -17 -44 -120 -55 -120 -5 0 -16 -25 -26 -55 -22 -71 -14 -143 21 -176
13 -12 22 -30 19 -38 -3 -10 5 -20 20 -28 25 -11 25 -11 19 30 -4 28 -2 38 4
28 12 -17 16 -9 32 56 14 61 46 129 52 111 6 -18 27 23 31 61 2 17 7 34 10 38
13 12 7 52 -8 65 -9 7 -34 30 -56 51 -22 20 -45 37 -51 37 -5 0 -3 7 6 15 8 8
22 12 30 9 9 -3 16 -1 16 5 0 21 19 11 22 -11 2 -13 9 -22 17 -20 7 1 15 -7
18 -18 3 -11 9 -20 14 -20 13 0 44 -33 53 -56 16 -38 17 -93 3 -135 -12 -34
-20 -44 -38 -44 -31 -2 -60 -15 -54 -25 2 -4 -5 -17 -16 -28 -23 -26 -40 -142
-20 -142 6 0 16 -10 21 -22 5 -13 9 -17 9 -10 1 20 18 14 26 -10 3 -13 9 -18
11 -12 3 7 14 10 24 7 11 -3 17 -10 13 -16 -4 -6 2 -8 15 -5 15 4 22 2 22 -8
0 -8 9 -14 20 -14 11 0 20 -4 20 -10 0 -5 12 -13 28 -16 15 -4 39 -20 54 -35
15 -16 41 -32 58 -35 16 -4 30 -10 30 -15 0 -4 10 -9 22 -11 12 -2 23 -8 25
-15 8 -22 -128 -1 -148 23 -6 8 -19 14 -29 14 -9 0 -20 3 -24 7 -3 4 -12 8
-19 9 -7 1 -25 8 -42 15 -16 7 -32 13 -35 13 -3 1 -16 11 -30 24 -13 12 -29
22 -35 22 -6 0 -26 13 -45 30 -19 16 -41 29 -48 30 -7 0 -15 7 -18 15 -4 8
-12 15 -18 15 -20 0 -54 54 -67 104 -16 65 -7 190 16 216 10 11 15 20 10 20
-4 0 -2 7 6 16 10 13 10 17 -2 24 -12 8 -12 13 -1 31 12 19 12 21 -1 16 -13
-5 -15 2 -13 39 2 24 0 44 -5 44 -5 0 -9 10 -9 23 0 13 -4 27 -9 32 -5 6 -12
46 -14 90 -3 44 -6 80 -6 80 -1 0 -4 32 -7 70 -6 96 -6 95 -16 95 -12 0 -10
78 2 85 7 4 7 13 0 24 -7 14 -4 24 11 40 11 11 15 21 9 21 -6 0 -5 9 4 23 17
27 27 115 14 123 -7 4 -7 9 0 13 6 3 12 37 13 74 2 58 -1 70 -19 88 -27 25
-28 39 -1 46 12 3 18 11 15 19 -3 8 -1 14 5 14 6 0 8 4 5 9 -3 5 1 14 9 21 23
19 70 119 86 180 8 32 14 106 14 178 l0 122 33 -40 c18 -21 51 -49 72 -61z
m3305 -2816 c2 -25 -1 -41 -5 -36 -8 8 -266 601 -276 633 -2 8 59 -112 137
-268 110 -220 142 -294 144 -329z m530 -10873 c-62 -402 -197 -1176 -207
-1185 -3 -3 -555 411 -941 706 -108 83 -204 163 -211 177 -8 15 -49 59 -92 97
-111 99 -114 103 -114 123 0 10 -18 31 -40 48 -22 16 -40 31 -40 34 0 3 55 6
123 8 491 10 1105 125 1480 275 50 20 83 29 85 23 1 -6 -18 -144 -43 -306z"/>
<path d="M9136 22582 c-12 -23 -13 -32 -3 -35 9 -4 9 -6 0 -6 -7 -1 -13 -9
-13 -18 0 -9 -6 -24 -14 -32 -23 -26 -64 -114 -67 -141 -5 -63 28 -104 41 -50
8 32 48 58 95 61 22 2 46 7 53 13 10 7 16 5 23 -5 7 -11 9 -11 9 4 0 10 7 20
15 23 11 4 12 11 5 24 -9 17 -7 51 4 69 3 4 -1 17 -9 27 -10 14 -26 19 -62 19
-47 0 -48 0 -50 33 -2 46 -9 49 -27 14z"/>
<path d="M9123 22295 c-18 -21 -20 -28 -10 -50 7 -14 18 -25 25 -25 6 0 12 -8
12 -18 0 -25 78 -82 111 -82 15 0 29 -6 32 -12 3 -10 8 -10 21 1 10 9 14 21
10 30 -4 9 -6 26 -5 39 0 15 -5 22 -17 22 -11 0 -23 13 -31 35 -25 71 -109
105 -148 60z"/>
<path d="M9188 22070 c-7 -16 -16 -30 -20 -30 -5 0 -8 -7 -8 -15 0 -8 -4 -15
-9 -15 -4 0 -24 -13 -42 -30 -32 -28 -34 -33 -34 -95 0 -36 3 -65 6 -65 3 0
23 11 43 25 21 14 43 25 49 24 7 -1 19 0 27 3 8 4 22 8 30 11 24 7 54 111 40
137 -6 11 -9 24 -6 29 5 7 -45 51 -58 51 -2 0 -10 -13 -18 -30z"/>
<path d="M9843 21058 c-15 -19 -26 -51 -24 -65 1 -7 -5 -13 -14 -13 -14 0 -19
-11 -16 -36 1 -7 -5 -14 -14 -18 -8 -3 -15 -14 -15 -24 0 -10 -3 -22 -7 -26
-4 -3 -8 -14 -9 -24 -1 -9 -8 -47 -14 -84 -6 -37 -8 -95 -5 -130 4 -35 8 -92
11 -128 2 -36 8 -94 13 -130 4 -36 7 -68 5 -72 -2 -3 2 -8 8 -11 10 -3 10 -8
-1 -21 -20 -24 3 -188 26 -179 9 4 13 14 9 29 -4 13 0 28 7 36 16 16 27 68 33
168 3 41 6 81 6 87 1 7 10 15 20 19 18 5 25 24 9 24 -6 0 -6 13 -1 33 9 35 18
144 24 300 2 57 9 103 16 112 10 12 10 15 -2 15 -13 0 -17 43 -8 85 1 6 2 17
1 25 -1 13 -3 13 -10 1 -5 -8 -7 -20 -4 -28 8 -21 -11 -15 -25 8 -7 11 -10 29
-7 40 7 22 2 25 -12 7z"/>
</g>
</svg>
